<svg xmlns="http://www.w3.org/2000/svg" width="1010" height="1600" viewBox="0 0 1010 1600"><defs><style>.cls-1{fill:#858c94;}.cls-2,.cls-5{fill:none;stroke:#858c94;stroke-width:5px;}.cls-2{stroke-linecap:round;stroke-linejoin:round;}.cls-3{opacity:0.2;}.cls-4{fill:#fff;}.cls-5{stroke-miterlimit:10;}</style></defs><g id="Lag_2" data-name="Lag 2"><path class="cls-1" d="M722.71,361.44l-.13-.14L540.5,510.86h-.33L508.84,188v-.13l.06-2.62C723.82,185.38,898,359.6,898,574.52h-1.24l-1,.66L573.87,544.23v-.39Z"/><path class="cls-1" d="M721.86,787.81l.13-.14L572.89,607.1l.45-.45,322.41-31.21v-.26l1-.66H898c0,214.92-174.23,389.21-389.14,389.28V961h.06L540,639.82l.2-.2Z"/><path class="cls-1" d="M508.84,963.8V1412l-495-836.84v-.59h105.6v.79C119.82,789.9,294,963.8,508.7,963.8Z"/><polygon class="cls-1" points="477.63 639.29 477.24 639.36 296.21 788.07 296.01 787.94 445.05 607.04 444.79 606.84 122.7 575.5 122.7 575.24 445.77 545.15 445.7 544.49 294.96 361.5 295.29 361.11 477.17 511 477.63 510.87 505.04 224.96 505.76 225.03 505.56 928.6 505.5 928.6 477.63 639.29"/><line class="cls-2" x1="505.76" y1="225.03" x2="505.56" y2="928.6"/><path class="cls-2" d="M898,574.52c0,214.92-174.23,389.21-389.14,389.28h-.14C294,963.8,119.82,789.9,119.43,575.31v-.79c0-215,174.29-389.27,389.27-389.27h.2C723.82,185.38,898,359.6,898,574.52Z"/><polyline class="cls-2" points="508.57 188 505.04 224.96 477.63 510.87"/><polyline class="cls-2" points="540.17 511 540.17 510.87 508.83 188 508.83 187.87"/><line class="cls-2" x1="508.9" y1="960.98" x2="540.04" y2="639.82"/><polyline class="cls-2" points="477.63 639.1 477.63 639.29 505.5 928.6 508.64 961.05"/><line class="cls-2" x1="122.7" y1="575.5" x2="444.78" y2="606.84"/><polyline class="cls-2" points="446.22 545.08 445.77 545.15 122.7 575.24 122.64 575.24"/><line class="cls-2" x1="895.75" y1="575.18" x2="573.87" y2="544.23"/><polyline class="cls-2" points="573.34 606.65 895.75 575.44 895.82 575.44"/><line class="cls-2" x1="294.96" y1="361.5" x2="445.7" y2="544.49"/><line class="cls-2" x1="477.17" y1="511" x2="295.29" y2="361.11"/><line class="cls-2" x1="721.99" y1="787.67" x2="572.89" y2="607.1"/><polyline class="cls-2" points="540.17 639.55 540.24 639.62 721.86 787.81 721.92 787.87"/><line class="cls-2" x1="296.21" y1="788.07" x2="477.24" y2="639.36"/><polyline class="cls-2" points="445.18 606.84 445.05 607.04 296.01 787.94 295.94 788"/><line class="cls-2" x1="722.58" y1="361.3" x2="540.5" y2="510.86"/><polyline class="cls-2" points="573.87 543.84 722.71 361.44 722.77 361.37"/><polyline class="cls-2" points="117.4 574.52 13.84 574.52 13.51 574.52"/><polyline class="cls-2" points="508.83 958.63 508.83 960.98 508.83 961.05 508.83 963.8 508.83 1411.95 508.83 1412.41 508.83 1492.62"/><polyline class="cls-2" points="13.84 575.11 508.83 1411.95 508.97 1412.15 509.16 1412.48"/><polyline class="cls-2" points="1003.77 575.31 508.97 1412.15 508.83 1412.41 508.57 1412.87"/><polyline class="cls-2" points="1003.97 574.52 1003.77 574.52 897.98 574.52 896.74 574.52"/><line class="cls-2" x1="508.73" y1="52.68" x2="508.73" y2="182.02"/><path class="cls-1" d="M508.73,61.66l18,11,.4-.61L515.49,42.62q-3.37-15.34-6.76-30.7L502,42.62,490.31,72l.31.61Z"/><line class="cls-2" x1="508.73" y1="1466.43" x2="508.73" y2="1522.68"/><polygon class="cls-1" points="510.95 1517.74 530.23 1549.69 530.23 1588.56 508.73 1567.06 487.23 1588.56 487.23 1549.69 506.51 1517.74 510.95 1517.74"/><g class="cls-3"><path class="cls-4" d="M295.17,361.07l.2-.19L477.45,510.44h.26l31.34-322.87v-.07l-.07-3.27C295.11,185.47,122.06,359.31,122.06,573.5v1.25h.13L444,543.87v-.39Z"/><path class="cls-4" d="M444.6,606.28,122.06,575c.79,213.54,173.57,386.53,387,387.77v-2.22H509L477.84,639.39l-.2-.2L296,787.51l-.13-.2L445,606.68Z"/><path class="cls-4" d="M509.05,962.78v448.81l495-836.91v-.52H900.61c-.33,214.66-174.42,388.62-389.27,388.62Z"/><polygon class="cls-4" points="540.25 638.93 540.64 639 721.74 787.7 721.94 787.57 572.83 606.61 573.1 606.41 895.18 575.14 895.18 574.88 572.11 544.78 572.18 544.13 722.98 361.14 722.59 360.68 540.71 510.57 540.25 510.5 512.9 224.53 512.12 224.6 512.38 928.11 540.25 638.93"/><line class="cls-5" x1="512.12" y1="224.6" x2="512.38" y2="928.1"/><path class="cls-5" d="M509,184.23C295.11,185.47,122.06,359.31,122.06,573.5V575c.79,213.54,173.57,386.53,387,387.77h2.29c214.85,0,388.94-174,389.27-388.62v-.66c0-215-174.23-389.27-389.27-389.27Z"/><polyline class="cls-5" points="509.37 187.57 512.9 224.53 540.25 510.5"/><polyline class="cls-5" points="477.71 510.57 477.71 510.44 509.05 187.57 509.05 187.5"/><line class="cls-5" x1="508.98" y1="960.56" x2="477.84" y2="639.39"/><polyline class="cls-5" points="540.25 638.73 540.25 638.93 512.38 928.11 512.38 928.17 509.24 960.69"/><line class="cls-5" x1="895.18" y1="575.14" x2="573.1" y2="606.41"/><polyline class="cls-5" points="571.66 544.72 572.11 544.78 895.18 574.88 895.25 574.88"/><line class="cls-5" x1="122.19" y1="574.75" x2="444.01" y2="543.87"/><line class="cls-5" x1="444.6" y1="606.28" x2="122.06" y2="575.01"/><line class="cls-5" x1="722.98" y1="361.14" x2="572.18" y2="544.13"/><line class="cls-5" x1="540.71" y1="510.57" x2="722.59" y2="360.68"/><line class="cls-5" x1="295.89" y1="787.31" x2="444.99" y2="606.68"/><polyline class="cls-5" points="477.71 639.13 477.64 639.19 296.02 787.51"/><line class="cls-5" x1="721.74" y1="787.7" x2="540.65" y2="638.99"/><polyline class="cls-5" points="572.7 606.41 572.83 606.61 721.94 787.57"/><line class="cls-5" x1="295.37" y1="360.88" x2="477.45" y2="510.44"/><polyline class="cls-5" points="444.01 543.48 295.17 361.07 295.11 361.01"/><polyline class="cls-5" points="900.48 574.16 900.61 574.16 1004.04 574.16 1004.37 574.16"/><polyline class="cls-5" points="509.05 958.26 509.05 960.55 509.05 960.69 509.05 962.78 509.05 1411.59 509.05 1412.05 509.05 1492.19"/><polyline class="cls-5" points="1004.04 574.68 509.05 1411.59 508.91 1411.85 508.78 1412.05"/><polyline class="cls-5" points="14.11 574.94 508.91 1411.85 509.05 1412.05 509.31 1412.51"/><polyline class="cls-5" points="13.91 574.09 14.11 574.09 121.14 574.09"/></g></g></svg>
