<svg xmlns="http://www.w3.org/2000/svg" width="2120" height="2100" viewBox="0 0 2120 2100"><defs><style>.cls-1,.cls-3{fill:#fff;}.cls-1{opacity:0.47;}.cls-2{opacity:0.2;}.cls-4{fill:#36a9e1;}.cls-5,.cls-6{fill:none;stroke-width:5px;}.cls-5{stroke:#000;stroke-miterlimit:10;}.cls-6{stroke:#2b2b2b;stroke-linecap:round;stroke-linejoin:round;}.cls-7{fill:#2b2b2b;}</style></defs><g id="Lag_4" data-name="Lag 4"><circle class="cls-1" cx="1056.09" cy="1050" r="1029.25"/><g class="cls-2"><path d="M1060.23,1213.85c-213.42-1.24-386.14-174.23-387-387.71v-.91h-108V826l494.8,836.85,2.62-4.45-2.48-1.44Z"/><path class="cls-3" d="M1060.23,1213.85V1657l2.48,1.44,492.52-832.59v-.59H1451.79c-.33,214.66-174.49,388.62-389.28,388.62Z"/><path class="cls-3" d="M1060.23,1211.69h-.14L1029,890.52l-.19-.26L847.14,1038.58l-.13-.2,149.1-180.57-.39-.46L673.24,826.14c.85,213.48,173.57,386.47,387,387.71v-2.16Z"/><path d="M1446.29,826.21l-322,31.27-.27.2,149,181-.13.13-181-148.71-.46-.06-27.81,289.31-3.14,32.45h-.19v2.09h2.28c214.79,0,389-174,389.28-388.62h-.13l-5.24.72h-.13Z"/><path class="cls-3" d="M846.35,612.14l.13-.13,182.08,149.56h.26l31.41-322.87v-.13l-.07-3.27c-213.87,1.24-386.92,175.08-386.92,389.27v1.31h.07l321.88-30.94v-.39Z"/><path class="cls-4" d="M1028.76,890.26l.19.26,31.14,321.17h.14v.07h.19l3.14-32.45h-.06l-.2-703.58.72-.06-3.53-37h-.26l-31.41,322.87h-.26L846.48,612l-.13.13L995.19,794.55v.39L673.31,825.88h-.07v.26l322.48,31.21.39.46L847,1038.38l.13.2Z"/><path d="M1060.16,435.3l.07,3.27v.13h.26l3.53,37,27.35,285.9.52.13L1273.7,611.81l.4.4-150.74,183-.07.65,323,30.1h.13l5.24-.72h.13v-.66c0-215-174.29-389.27-389.28-389.27Z"/><polygon class="cls-3" points="1123.29 795.85 1123.36 795.2 1274.1 612.21 1273.7 611.82 1091.89 761.7 1091.37 761.57 1064.02 475.67 1063.3 475.73 1063.5 1179.31 1063.56 1179.31 1091.37 890 1091.83 890.06 1272.85 1038.77 1272.98 1038.64 1124.01 857.68 1124.28 857.48 1446.29 826.21 1446.29 825.95 1123.29 795.85"/><line class="cls-5" x1="1063.3" y1="475.73" x2="1063.5" y2="1179.31"/><path class="cls-5" d="M1060.16,435.3c-213.87,1.24-386.92,175.08-386.92,389.27v1.57c.85,213.48,173.57,386.47,387,387.71h2.28c214.79,0,389-174,389.28-388.62v-.66c0-215-174.29-389.27-389.28-389.27Z"/><polyline class="cls-5" points="1060.49 438.7 1064.02 475.67 1091.37 761.57"/><polyline class="cls-5" points="1028.82 761.7 1028.82 761.57 1060.22 438.7 1060.22 438.57"/><line class="cls-5" x1="1060.09" y1="1211.69" x2="1028.95" y2="890.52"/><polyline class="cls-5" points="1091.37 889.8 1091.37 890 1063.56 1179.31 1060.42 1211.76"/><line class="cls-5" x1="1446.29" y1="826.21" x2="1124.28" y2="857.48"/><polyline class="cls-5" points="1122.77 795.79 1123.29 795.85 1446.29 825.95 1446.42 825.95"/><line class="cls-5" x1="673.31" y1="825.88" x2="995.19" y2="794.94"/><polyline class="cls-5" points="995.72 857.35 673.24 826.14 673.17 826.14"/><line class="cls-5" x1="1274.1" y1="612.21" x2="1123.36" y2="795.2"/><line class="cls-5" x1="1091.89" y1="761.7" x2="1273.7" y2="611.81"/><line class="cls-5" x1="847.01" y1="1038.38" x2="996.11" y2="857.81"/><polyline class="cls-5" points="1028.82 890.2 1028.76 890.26 847.14 1038.58"/><line class="cls-5" x1="1272.85" y1="1038.77" x2="1091.83" y2="890.06"/><polyline class="cls-5" points="1123.82 857.48 1124.01 857.68 1272.98 1038.64 1273.05 1038.71"/><line class="cls-5" x1="846.48" y1="612.01" x2="1028.56" y2="761.57"/><polyline class="cls-5" points="995.19 794.54 846.35 612.14 846.29 612.08"/><polyline class="cls-5" points="1451.66 825.23 1451.79 825.23 1555.22 825.23 1555.55 825.23"/><path class="cls-5" d="M1060.23,1209.34V1657"/><polyline class="cls-5" points="1555.22 825.82 1062.71 1658.41 1060.09 1662.86 1059.9 1663.18"/><polyline class="cls-5" points="565.29 826.01 1060.09 1662.86 1060.49 1663.58"/><polyline class="cls-5" points="565.09 825.23 565.29 825.23 672.26 825.23"/></g><line class="cls-6" x1="1055.87" y1="1716.19" x2="1055.87" y2="1772.44"/><polygon class="cls-7" points="1058.09 1767.51 1077.37 1799.45 1077.37 1838.32 1055.87 1816.82 1034.37 1838.32 1034.37 1799.45 1053.65 1767.51 1058.09 1767.51"/><line class="cls-6" x1="1055.87" y1="302.44" x2="1055.87" y2="431.79"/><path class="cls-7" d="M1055.87,311.42l18,11,.41-.62-11.67-29.37-6.75-30.71q-3.37,15.36-6.76,30.71l-11.66,29.37.3.62Z"/><path class="cls-7" d="M1445.09,824.26h-1.17l-1.05.65L1121,794v-.45l148.91-182.41-.2-.13L1087.62,760.6h-.27L1056,437.73v-.06L1056,435C1271,435.12,1445.09,609.34,1445.09,824.26Z"/><path class="cls-7" d="M1442.87,825.18v-.27l1.05-.65h1.17c0,214.92-174.16,389.21-389.14,389.27v-2.81h.13l31.14-321.17.2-.19L1269,1037.61l.13-.2-149.1-180.57.39-.39Z"/><path class="cls-7" d="M1056,1213.53v448.16L561,824.85v-.59H666.54v.85c.46,214.59,174.56,388.42,389.28,388.42Z"/><polygon class="cls-7" points="1024.74 889.1 1024.35 889.16 843.32 1037.87 843.12 1037.74 992.16 856.77 991.9 856.58 669.88 825.31 669.88 825.04 992.88 794.95 992.82 794.29 842.08 611.3 842.47 610.85 1024.28 760.73 1024.74 760.67 1052.15 474.7 1052.88 474.76 1052.68 1178.34 1052.61 1178.34 1024.74 889.1"/><line class="cls-6" x1="1052.87" y1="474.76" x2="1052.68" y2="1178.34"/><path class="cls-6" d="M1445.09,824.26c0,214.92-174.16,389.21-389.14,389.27h-.13c-214.72,0-388.82-173.83-389.28-388.42v-.85c0-215,174.29-389.28,389.28-389.28h.2C1271,435.12,1445.09,609.34,1445.09,824.26Z"/><polyline class="cls-6" points="1055.69 437.73 1052.15 474.7 1024.74 760.67"/><polyline class="cls-6" points="1087.35 760.73 1087.35 760.6 1055.95 437.73 1055.95 437.67"/><line class="cls-6" x1="1056.08" y1="1210.72" x2="1087.22" y2="889.55"/><polyline class="cls-6" points="1024.74 888.9 1024.74 889.1 1052.61 1178.34 1055.75 1210.85"/><line class="cls-6" x1="669.88" y1="825.31" x2="991.9" y2="856.58"/><polyline class="cls-6" points="993.34 794.88 992.88 794.95 669.88 825.04 669.75 825.04"/><line class="cls-6" x1="1442.87" y1="824.91" x2="1120.98" y2="794.03"/><polyline class="cls-6" points="1120.46 856.45 1442.87 825.17 1443 825.17"/><line class="cls-6" x1="842.08" y1="611.3" x2="992.82" y2="794.29"/><line class="cls-6" x1="1024.28" y1="760.73" x2="842.47" y2="610.85"/><line class="cls-6" x1="1269.17" y1="1037.41" x2="1120.07" y2="856.84"/><polyline class="cls-6" points="1087.35 889.29 1087.42 889.36 1269.04 1037.61"/><line class="cls-6" x1="843.32" y1="1037.87" x2="1024.35" y2="889.16"/><polyline class="cls-6" points="992.36 856.58 992.16 856.77 843.12 1037.74"/><line class="cls-6" x1="1269.69" y1="611.04" x2="1087.62" y2="760.6"/><line class="cls-6" x1="1120.98" y1="793.58" x2="1269.89" y2="611.17"/><polyline class="cls-6" points="664.52 824.26 560.95 824.26 560.62 824.26"/><polyline class="cls-6" points="1055.95 1208.43 1055.95 1210.72 1055.95 1210.85 1055.95 1213.53 1055.95 1661.69 1055.95 1662.21 1055.95 1742.36"/><polyline class="cls-6" points="560.95 824.85 1055.95 1661.69 1056.15 1661.95 1056.28 1662.21"/><polyline class="cls-6" points="1550.88 825.11 1056.15 1661.95 1055.95 1662.21 1055.69 1662.67"/><polyline class="cls-6" points="1551.08 824.26 1550.88 824.26 1445.09 824.26 1443.92 824.26"/></g></svg>
