<svg id="Lag_1" data-name="Lag 1" xmlns="http://www.w3.org/2000/svg" width="140" height="190" viewBox="0 0 140 190"><defs><style>.cls-1{fill:#828282;}.cls-2{fill:none;stroke:#828282;stroke-miterlimit:10;stroke-width:10px;}</style></defs><path class="cls-1" d="M98.65,41.44a9.8,9.8,0,0,1,4.67,2.18,69,69,0,0,1,4.74,5.49c.36.32,2.81,1.07,3,2.78s0,3.82-1.66,3.75a19.35,19.35,0,0,1-4-.68c-.2-.11-4.93,0-4.93,0a8.44,8.44,0,0,1-1.93,4.89c-1.78,1.82-6.16,8.7-6.16,8.7L92,69.4s1.15,28.21-3.68,29.67l.1-2.57H87.22a13.1,13.1,0,0,0,2.42-7.63c-.23-4.1-2.48-14.62-3.18-14.65S83.12,76.75,78.84,78,71,80.24,71,80.24,67.42,93.08,67.28,95.9s0,8.91,1,9,19.25.64,20.08,1.07.76.57.76.57l-.07.54a5.25,5.25,0,0,0-2,.14c-.56.28,0,1.28-.93,1.28s-25.6-.35-25.6-.35a24.05,24.05,0,0,1,.63-5.6c.73-3.35.73-11.38.13-11.95S59,85.34,57.74,85c0,0-.79,1.43-1.88,1.43S53,83.31,53,83.31s-1.29-1.64-4,10.16-5.27,14.7-11.3,15.09S20,108.5,20,108.5s-7.48-4,1-4S40.06,104,40.22,94,42,68.26,45.36,63.8s12.12-17,34.34-11.12c0,0,7.92,3.49,9.51,2.31s2.38-2.24,2.35-3.74-.56-7.92,2.85-8.67c0,0-1.16-11.48,6.76-14.51l.92-.11.2,2.46s.93.64.93.79S101.93,39.45,98.65,41.44Z"/><circle class="cls-2" cx="70.91" cy="67.78" r="61.73"/><path class="cls-1" d="M103.64,123.05l-.17,0L73.39,190,38.61,125.4l-.43,0"/></svg>
