<svg id="Lag_1" data-name="Lag 1" xmlns="http://www.w3.org/2000/svg" width="140" height="190" viewBox="0 0 140 190"><defs><style>.cls-1{fill:#828282;}.cls-2{fill:none;stroke:#828282;stroke-miterlimit:10;stroke-width:10px;}</style></defs><path class="cls-1" d="M69.65,58.78s-6.67.07-6.73.81-.06,28.05-.06,28.05L58.06,64.7s-5.17,3-6.35,4.46c0,0-13.09-1.46-17.2-5.7S26,52.36,25.9,51.16s-2-4.15-2.78-3.78.33,7.81.33,7.81S25.66,75.05,44,80.37a76.85,76.85,0,0,0-2.58,8.1s7.73,6.15,27.8,6.36Z"/><path class="cls-1" d="M70.68,58.76s6.67.07,6.73.81.06,28.05.06,28.05l4.8-22.94s5.17,3,6.36,4.46c0,0,13.09-1.47,17.2-5.7s8.52-11.1,8.6-12.3,2-4.16,2.78-3.78-.33,7.81-.33,7.81S114.68,75,96.36,80.35a77.62,77.62,0,0,1,2.57,8.1S91.2,94.6,71.14,94.8Z"/><rect class="cls-1" x="68.94" y="58.76" width="2.71" height="36.04" rx="1.36"/><path class="cls-1" d="M99.63,93.12h-.2c-3.25,3.29-15.07,5.74-29.15,5.74s-25.91-2.45-29.16-5.74h-.59v9.18c0,.31,0,.6,0,.89,0,5.69,13.24,10.31,29.57,10.31s29.57-4.62,29.57-10.31a3.08,3.08,0,0,0,0-.53h0Zm-55.2,11.3c-1.27,0-2.29-1.56-2.29-3.49s1-3.49,2.29-3.49,2.29,1.56,2.29,3.49S45.69,104.42,44.43,104.42Zm11,4.18a3.51,3.51,0,1,1,3.18-3.49A3.34,3.34,0,0,1,55.4,108.6Zm14.78,1.05a3.57,3.57,0,1,1,3.57-3.57A3.57,3.57,0,0,1,70.18,109.65ZM85,108.51A3.51,3.51,0,1,1,88.16,105,3.34,3.34,0,0,1,85,108.51Zm11-4c-1.26,0-2.29-1.56-2.29-3.49s1-3.49,2.29-3.49,2.29,1.57,2.29,3.49S97.26,104.48,96,104.48Z"/><circle class="cls-2" cx="70.17" cy="67.78" r="61.73"/><path class="cls-1" d="M102.9,123.05l-.18,0L72.64,190,37.87,125.4l-.44,0"/></svg>
