<svg id="Lag_1" data-name="Lag 1" xmlns="http://www.w3.org/2000/svg" width="140" height="190" viewBox="0 0 140 190"><defs><style>.cls-1{fill:#828282;}.cls-2{fill:#fff;}.cls-3,.cls-4{fill:none;stroke:#828282;stroke-miterlimit:10;}.cls-4{stroke-width:10px;}</style></defs><path class="cls-1" d="M49.08,30c.48,7.67,5.71,18.71,19.13,19h0c14.08.75,19.58-10.52,20.27-18.29,0-.19,0-.38,0-.57,0,.19,0,.38,0,.57-.69,7.43-6.18,16.17-20.25,15.42h0C54.79,45.82,49.64,37.39,49.18,30Zm30.47-.48h0l0,0c-2.3,2.37-3.43,3.79-10.17,3.79h0c-6,0-11.21-2.52-11.21-3.39h0c0,.41,0,.8,0,1.17l-.19,0c.45,6.91,4.05,12,10.31,12h0C75,43.16,79.49,37.13,79.55,29.5ZM92.07,50.81,89,53.94l-3.17,3.21L80.42,51l-5,5L74.1,57.42l-5.44-6.18,0,0-1.45,1.55L62.6,57.39l-5.36-6.1h0l-.31.32-5.82,5.9-5.33-6.06-6.31,6.39-3.72-4.77-.06.07,0,3.22.08,7.47,0,3.3.08,7.41,0,3.3h0l3.73,4.77L46,76.23l5.33,6.06.13.15,5.69-6,.32-.32,5.36,6.09.11.12,4.46-4.75L68.91,76l5.44,6.18,0,0,1.33-1.41,5-5,5.39,6.13.08.09,3.09-3.3,3.09-3.12,5.47,6.21,4.79-5h0l0-3.3,0-7.1,0-3.34-.06-7.73,0-3.33L97.54,57Zm11.53-23,6.84,10.56-.27,25.49-5,6.19s-.09,8.33-.09,22.85S90.53,110.5,90.53,110.5s-34.94,0-45-.31S32.91,94.25,32.91,94.25l-.17-23.86S30.25,67,29.09,65.62a7.63,7.63,0,0,1-1.42-3.35L27.93,38s5.07-7.72,6.76-9.75A5.72,5.72,0,0,1,37.89,26l20.18-.21s3.65,3.76,10.85,3.76a17.82,17.82,0,0,0,11.47-4s11.74.1,16.72,0S103.6,27.84,103.6,27.84Z"/><polygon class="cls-2" points="92.32 75.59 89.23 78.71 86.06 81.92 80.67 75.79 75.71 80.82 74.35 82.2 68.91 76.02 68.88 75.98 67.42 77.53 62.85 82.16 57.49 76.07 57.48 76.06 57.17 76.39 51.35 82.29 46.02 76.23 39.71 82.61 35.98 77.84 35.94 77.84 35.91 74.54 35.92 74.54 39.65 79.31 45.96 72.93 51.29 78.99 51.42 79.14 57.11 73.09 57.43 72.77 62.79 78.86 62.9 78.98 67.39 74.21 68.86 72.72 74.29 78.9 74.32 78.94 75.65 77.52 80.61 72.49 86 78.62 86.08 78.71 89.13 75.46 92.26 72.29 97.73 78.5 102.53 73.45 102.56 76.75 102.58 76.77 97.79 81.81 92.32 75.59"/><polygon class="cls-1" points="92.26 72.29 89.13 75.46 86 78.62 80.61 72.49 75.65 77.52 74.29 78.9 68.86 72.72 68.82 72.68 67.39 74.21 62.79 78.86 57.43 72.77 57.42 72.77 57.11 73.09 51.29 78.99 45.96 72.93 39.65 79.31 35.92 74.54 35.91 74.54 35.83 67.13 36.16 67.12 39.89 71.91 46.2 65.52 51.52 71.58 51.66 71.73 57.35 65.68 57.67 65.36 63.03 71.45 63.13 71.57 67.65 66.76 69.09 65.3 74.53 71.48 74.56 71.52 75.98 70.01 80.85 65.08 86.25 71.21 86.32 71.29 89.37 68.04 92.5 64.88 97.96 71.09 102.48 66.35 102.53 73.45 97.73 78.5 92.26 72.29"/><polygon class="cls-2" points="92.5 64.88 89.37 68.04 86.25 71.21 80.85 65.08 75.98 70.01 74.53 71.48 69.09 65.3 69.06 65.27 67.65 66.76 63.03 71.45 57.67 65.36 57.66 65.35 57.35 65.68 51.52 71.58 46.2 65.52 39.89 71.91 36.16 67.12 35.83 67.13 35.79 63.83 36.1 63.82 39.83 68.61 46.13 62.22 51.47 68.28 51.6 68.44 57.29 62.38 57.61 62.06 62.97 68.15 63.08 68.27 67.52 63.54 69.03 62.01 74.47 68.18 74.5 68.22 75.9 66.73 80.79 61.78 86.19 67.91 86.26 67.99 89.31 64.74 92.44 61.58 97.91 67.79 102.45 63.01 102.48 66.35 97.96 71.09 92.5 64.88"/><polygon class="cls-1" points="92.44 61.58 89.31 64.74 86.19 67.91 80.79 61.78 75.9 66.73 74.47 68.18 69.03 62.01 69 61.97 67.52 63.54 62.97 68.15 57.61 62.06 57.6 62.05 57.29 62.38 51.47 68.28 46.13 62.22 39.83 68.61 36.1 63.82 35.79 63.83 35.71 56.36 35.79 56.36 39.52 61.14 45.83 54.75 51.16 60.81 51.29 60.97 56.98 54.91 57.3 54.59 62.66 60.69 62.76 60.81 67.2 56.09 68.72 54.54 74.16 60.72 74.19 60.75 75.59 59.27 80.48 54.31 85.88 60.44 85.95 60.52 89.04 57.23 92.13 54.11 97.6 60.33 102.39 55.28 102.45 63.01 97.91 67.79 92.44 61.58"/><polygon class="cls-2" points="92.13 54.11 89.04 57.23 85.88 60.44 80.48 54.31 75.59 59.27 74.16 60.72 68.72 54.54 68.69 54.5 67.2 56.09 62.66 60.69 57.3 54.59 57.29 54.59 56.98 54.91 51.16 60.81 45.83 54.75 39.52 61.14 35.79 56.36 35.71 56.36 35.68 53.14 35.74 53.07 39.46 57.84 45.77 51.45 51.1 57.51 51.23 57.67 56.92 51.61 57.24 51.3 62.6 57.39 62.7 57.5 67.17 52.75 68.66 51.24 74.1 57.42 74.13 57.46 75.46 56.04 80.42 51.02 85.81 57.15 85.89 57.23 88.98 53.94 92.07 50.81 97.54 57.03 102.36 51.95 102.39 55.28 97.6 60.33 92.13 54.11"/><polygon class="cls-2" points="89.37 68.04 86.32 71.29 86.25 71.21 89.37 68.04"/><polygon class="cls-2" points="89.31 64.74 86.26 67.99 86.19 67.91 89.31 64.74"/><polygon class="cls-2" points="89.23 78.71 86.14 82.01 86.06 81.92 89.23 78.71"/><polygon class="cls-2" points="89.13 75.46 86.08 78.71 86 78.62 89.13 75.46"/><polygon class="cls-2" points="89.04 57.23 85.95 60.52 85.88 60.44 89.04 57.23"/><polygon class="cls-2" points="88.98 53.94 85.89 57.23 85.81 57.15 88.98 53.94"/><path class="cls-2" d="M88.53,30.12c0,.19,0,.38,0,.57C88.5,30.5,88.51,30.31,88.53,30.12Z"/><path class="cls-2" d="M68.75,39.62h0c6.72,0,10.75-2.45,10.77-10.1l0,0h0C79.49,37.13,75,43.16,68.28,43.16h0C62,43.16,58.42,38,58,31.11l.19,0C58.62,37.65,62.46,39.62,68.75,39.62Z"/><path class="cls-1" d="M69.35,33.31h0c6.74,0,7.87-1.42,10.17-3.79,0,7.65-4,10.1-10.77,10.1h0c-6.29,0-10.13-2-10.59-8.53,0-.37,0-.76,0-1.17h0C58.14,30.79,63.3,33.31,69.35,33.31Z"/><polygon class="cls-2" points="75.98 70.01 74.56 71.52 74.53 71.48 75.98 70.01"/><polygon class="cls-2" points="75.9 66.73 74.5 68.22 74.47 68.18 75.9 66.73"/><polygon class="cls-2" points="75.71 80.82 74.38 82.23 74.35 82.2 75.71 80.82"/><polygon class="cls-2" points="75.65 77.52 74.32 78.94 74.29 78.9 75.65 77.52"/><polygon class="cls-2" points="75.59 59.27 74.19 60.75 74.16 60.72 75.59 59.27"/><polygon class="cls-2" points="75.46 56.04 74.13 57.46 74.1 57.42 75.46 56.04"/><path class="cls-2" d="M68.23,46.11h0c14.07.75,19.56-8,20.25-15.42-.69,7.77-6.19,19-20.27,18.29h0c-13.42-.3-18.65-11.34-19.13-19h.1C49.64,37.39,54.79,45.82,68.23,46.11Z"/><polygon class="cls-2" points="69.09 65.3 67.65 66.76 69.06 65.27 69.09 65.3"/><polygon class="cls-2" points="69 61.97 69.03 62.01 67.52 63.54 69 61.97"/><polygon class="cls-2" points="68.88 75.98 68.91 76.02 67.42 77.53 68.88 75.98"/><polygon class="cls-2" points="68.86 72.72 67.39 74.21 68.82 72.68 68.86 72.72"/><polygon class="cls-2" points="68.69 54.5 68.72 54.54 67.2 56.09 68.69 54.5"/><polygon class="cls-2" points="68.63 51.2 68.66 51.24 67.17 52.75 68.63 51.2"/><polygon class="cls-2" points="63.03 71.45 67.65 66.76 63.13 71.57 63.03 71.45"/><polygon class="cls-2" points="67.52 63.54 63.08 68.27 62.97 68.15 67.52 63.54"/><polygon class="cls-2" points="67.42 77.53 62.95 82.28 62.85 82.16 67.42 77.53"/><polygon class="cls-2" points="67.39 74.21 62.9 78.98 62.79 78.86 67.39 74.21"/><polygon class="cls-2" points="67.2 56.09 62.76 60.81 62.66 60.69 67.2 56.09"/><polygon class="cls-2" points="67.17 52.75 62.7 57.5 62.6 57.39 67.17 52.75"/><polygon class="cls-2" points="57.66 65.35 57.67 65.36 57.35 65.68 57.66 65.35"/><polygon class="cls-2" points="57.6 62.05 57.61 62.06 57.29 62.38 57.6 62.05"/><polygon class="cls-2" points="57.48 76.06 57.49 76.07 57.17 76.39 57.48 76.06"/><polygon class="cls-2" points="57.43 72.77 57.11 73.09 57.42 72.77 57.43 72.77"/><polygon class="cls-2" points="57.35 65.68 51.66 71.73 51.52 71.58 57.35 65.68"/><polygon class="cls-2" points="57.29 54.59 57.3 54.59 56.98 54.91 57.29 54.59"/><polygon class="cls-2" points="57.29 62.38 51.6 68.44 51.47 68.28 57.29 62.38"/><polygon class="cls-2" points="57.23 51.28 57.24 51.3 56.92 51.61 57.23 51.28"/><polygon class="cls-2" points="57.17 76.39 51.48 82.44 51.35 82.29 57.17 76.39"/><polygon class="cls-2" points="57.11 73.09 51.42 79.14 51.29 78.99 57.11 73.09"/><polygon class="cls-2" points="56.98 54.91 51.29 60.97 51.16 60.81 56.98 54.91"/><polygon class="cls-2" points="56.92 51.61 51.23 57.67 51.1 57.51 56.92 51.61"/><path class="cls-3" d="M58.07,25.81,37.89,26a5.72,5.72,0,0,0-3.2,2.23C33,30.28,27.93,38,27.93,38l-.26,24.27a7.63,7.63,0,0,0,1.42,3.35c1.16,1.42,3.65,4.77,3.65,4.77l.17,23.86s2.58,15.64,12.63,15.94,45,.31,45,.31,14.58-3,14.58-17.57.09-22.85.09-22.85l5-6.19.27-25.49L103.6,27.84s-1.52-2.33-6.49-2.23-16.72,0-16.72,0a17.82,17.82,0,0,1-11.47,4C61.72,29.57,58.07,25.81,58.07,25.81Z"/><polyline class="cls-3" points="35.79 56.36 39.52 61.14 39.66 61.31"/><polyline class="cls-3" points="45.97 54.61 45.83 54.75 39.52 61.14 39.44 61.22"/><polyline class="cls-3" points="51.44 61.13 51.29 60.97 51.16 60.81 45.83 54.75 45.7 54.62"/><polyline class="cls-3" points="51.25 61.01 51.29 60.97 56.98 54.91 57.29 54.59 57.34 54.53"/><polyline class="cls-3" points="57.44 54.45 57.3 54.59 56.98 54.91 51.16 60.81 50.91 61.06"/><polyline class="cls-3" points="62.91 60.97 62.76 60.81 62.66 60.69 57.3 54.59 57.29 54.59 57.17 54.45"/><polyline class="cls-3" points="62.72 60.85 62.76 60.81 67.2 56.09 68.69 54.5 68.81 54.37"/><polyline class="cls-3" points="68.86 54.4 68.72 54.54 67.2 56.09 62.66 60.69 62.34 61.01"/><polyline class="cls-3" points="74.33 60.92 74.19 60.75 74.16 60.72 68.72 54.54 68.69 54.5 68.6 54.4"/><polyline class="cls-3" points="74.15 60.8 74.19 60.75 75.59 59.27 80.23 54.32"/><polyline class="cls-3" points="80.62 54.17 80.48 54.31 75.59 59.27 74.16 60.72 74.09 60.78"/><polyline class="cls-3" points="86.09 60.69 85.95 60.52 85.88 60.44 80.48 54.31 80.36 54.17"/><polyline class="cls-3" points="85.91 60.57 85.95 60.52 89.04 57.23 91.99 54.09"/><polyline class="cls-3" points="92.27 53.96 92.13 54.11 89.04 57.23 85.88 60.44 85.74 60.58"/><polyline class="cls-3" points="97.74 60.49 97.6 60.33 92.13 54.11 92 53.97"/><polyline class="cls-3" points="97.56 60.37 97.6 60.33 102.39 55.28 102.43 55.24"/><polyline class="cls-3" points="35.73 53.06 35.74 53.07 39.46 57.84 39.6 58.01"/><polyline class="cls-3" points="45.91 51.31 45.77 51.45 39.46 57.84 39.38 57.92"/><polyline class="cls-3" points="51.38 57.83 51.23 57.67 51.1 57.51 45.77 51.45 45.64 51.32"/><polyline class="cls-3" points="51.19 57.72 51.23 57.67 56.92 51.61 57.23 51.28 57.28 51.23"/><polyline class="cls-3" points="57.38 51.15 57.24 51.3 56.92 51.61 51.1 57.51 50.85 57.77"/><polyline class="cls-3" points="62.85 57.67 62.7 57.5 62.6 57.39 57.24 51.3 57.23 51.28 57.11 51.15"/><polyline class="cls-3" points="62.66 57.55 62.7 57.5 67.17 52.75 68.63 51.2 68.75 51.07"/><polyline class="cls-3" points="68.81 51.1 68.66 51.24 67.17 52.75 62.6 57.39 62.27 57.72"/><polyline class="cls-3" points="74.27 57.62 74.13 57.46 74.1 57.42 68.66 51.24 68.63 51.2 68.54 51.1"/><polyline class="cls-3" points="74.09 57.5 74.13 57.46 75.46 56.04 80.17 51.02"/><polyline class="cls-3" points="80.56 50.87 80.42 51.02 75.46 56.04 74.1 57.42 74.03 57.49"/><polyline class="cls-3" points="86.03 57.4 85.89 57.23 85.81 57.15 80.42 51.02 80.3 50.87"/><polyline class="cls-3" points="85.85 57.27 85.89 57.23 88.98 53.94 91.93 50.79"/><polyline class="cls-3" points="92.21 50.66 92.07 50.81 88.98 53.94 85.81 57.15 85.68 57.28"/><polyline class="cls-3" points="97.68 57.19 97.54 57.03 92.07 50.81 91.94 50.67"/><polyline class="cls-3" points="97.5 57.07 97.54 57.03 102.36 51.95 102.37 51.94"/><polyline class="cls-3" points="36.16 67.12 39.89 71.91 40.03 72.08"/><polyline class="cls-3" points="46.34 65.37 46.2 65.52 39.89 71.91 39.81 71.99"/><polyline class="cls-3" points="51.81 71.9 51.66 71.73 51.52 71.58 46.2 65.52 46.07 65.38"/><polyline class="cls-3" points="51.63 71.78 51.66 71.73 57.35 65.68 57.66 65.35 57.71 65.3"/><polyline class="cls-3" points="57.81 65.21 57.67 65.36 57.35 65.68 51.52 71.58 51.28 71.83"/><polyline class="cls-3" points="63.28 71.73 63.13 71.57 63.03 71.45 57.67 65.36 57.66 65.35 57.54 65.22"/><polyline class="cls-3" points="63.09 71.61 63.13 71.57 67.65 66.76 69.06 65.27 69.18 65.14"/><polyline class="cls-3" points="69.24 65.16 69.09 65.3 67.65 66.76 63.03 71.45 62.7 71.78"/><polyline class="cls-3" points="74.71 71.68 74.56 71.52 74.53 71.48 69.09 65.3 69.06 65.27 68.97 65.17"/><polyline class="cls-3" points="74.52 71.56 74.56 71.52 75.98 70.01 80.61 65.08"/><polyline class="cls-3" points="81 64.93 80.85 65.08 75.98 70.01 74.53 71.48 74.46 71.55"/><polyline class="cls-3" points="86.46 71.45 86.32 71.29 86.25 71.21 80.85 65.08 80.73 64.94"/><polyline class="cls-3" points="86.28 71.34 86.32 71.29 89.37 68.04 92.36 64.86"/><polyline class="cls-3" points="92.64 64.73 92.5 64.88 89.37 68.04 86.25 71.21 86.11 71.34"/><polyline class="cls-3" points="98.11 71.25 97.96 71.09 92.5 64.88 92.37 64.73"/><polyline class="cls-3" points="97.92 71.13 97.96 71.09 102.48 66.35 102.8 66.01"/><polyline class="cls-3" points="36.1 63.82 39.83 68.61 39.97 68.78"/><polyline class="cls-3" points="46.28 62.07 46.13 62.22 39.83 68.61 39.75 68.69"/><polyline class="cls-3" points="51.75 68.6 51.6 68.44 51.47 68.28 46.13 62.22 46.01 62.08"/><polyline class="cls-3" points="51.56 68.48 51.6 68.44 57.29 62.38 57.6 62.05 57.65 62"/><polyline class="cls-3" points="57.75 61.91 57.61 62.06 57.29 62.38 51.47 68.28 51.22 68.53"/><polyline class="cls-3" points="63.22 68.44 63.08 68.27 62.97 68.15 57.61 62.06 57.6 62.05 57.48 61.92"/><polyline class="cls-3" points="63.03 68.32 63.08 68.27 67.52 63.54 69 61.97 69.12 61.84"/><polyline class="cls-3" points="69.18 61.86 69.03 62.01 67.52 63.54 62.97 68.15 62.64 68.48"/><polyline class="cls-3" points="74.65 68.38 74.5 68.22 74.47 68.18 69.03 62.01 69 61.97 68.91 61.87"/><polyline class="cls-3" points="74.46 68.27 74.5 68.22 75.9 66.73 80.55 61.79"/><polyline class="cls-3" points="80.94 61.63 80.79 61.78 75.9 66.73 74.47 68.18 74.4 68.25"/><polyline class="cls-3" points="86.4 68.16 86.26 67.99 86.19 67.91 80.79 61.78 80.67 61.64"/><polyline class="cls-3" points="86.22 68.04 86.26 67.99 89.31 64.74 92.3 61.56"/><polyline class="cls-3" points="92.58 61.43 92.44 61.58 89.31 64.74 86.19 67.91 86.05 68.05"/><polyline class="cls-3" points="98.05 67.95 97.91 67.79 92.44 61.58 92.31 61.44"/><polyline class="cls-3" points="97.86 67.84 97.91 67.79 102.45 63.01 102.74 62.71"/><polyline class="cls-3" points="35.98 77.84 39.71 82.61 39.85 82.79"/><polyline class="cls-3" points="46.16 76.08 46.02 76.23 39.71 82.61 39.63 82.7"/><polyline class="cls-3" points="51.63 82.61 51.48 82.44 51.35 82.29 46.02 76.23 45.9 76.09"/><polyline class="cls-3" points="51.45 82.49 51.48 82.44 57.17 76.39 57.48 76.06 57.53 76.01"/><polyline class="cls-3" points="57.63 75.92 57.49 76.07 57.17 76.39 51.35 82.29 51.1 82.54"/><polyline class="cls-3" points="63.1 82.45 62.95 82.28 62.85 82.16 57.49 76.07 57.48 76.06 57.37 75.93"/><polyline class="cls-3" points="62.91 82.33 62.95 82.28 67.42 77.53 68.88 75.98 69 75.85"/><polyline class="cls-3" points="69.06 75.87 68.91 76.02 67.42 77.53 62.85 82.16 62.53 82.49"/><polyline class="cls-3" points="74.53 82.4 74.38 82.23 74.35 82.2 68.91 76.02 68.88 75.98 68.79 75.88"/><polyline class="cls-3" points="74.34 82.28 74.38 82.23 75.71 80.82 80.43 75.8"/><polyline class="cls-3" points="80.82 75.64 80.67 75.79 75.71 80.82 74.35 82.2 74.29 82.26"/><polyline class="cls-3" points="86.28 82.17 86.14 82.01 86.06 81.92 80.67 75.79 80.55 75.65"/><polyline class="cls-3" points="86.1 82.05 86.14 82.01 89.23 78.71 92.19 75.57"/><polyline class="cls-3" points="92.46 75.44 92.32 75.59 89.23 78.71 86.06 81.92 85.93 82.06"/><polyline class="cls-3" points="97.93 81.97 97.79 81.81 92.32 75.59 92.19 75.45"/><polyline class="cls-3" points="97.75 81.85 97.79 81.81 102.58 76.77 102.62 76.72"/><polyline class="cls-3" points="35.92 74.54 39.65 79.31 39.79 79.49"/><polyline class="cls-3" points="46.1 72.78 45.96 72.93 39.65 79.31 39.57 79.4"/><polyline class="cls-3" points="51.57 79.31 51.42 79.14 51.29 78.99 45.96 72.93 45.84 72.79"/><polyline class="cls-3" points="51.38 79.19 51.42 79.14 57.11 73.09 57.42 72.77 57.47 72.71"/><polyline class="cls-3" points="57.57 72.63 57.43 72.77 57.11 73.09 51.29 78.99 51.04 79.24"/><polyline class="cls-3" points="63.04 79.15 62.9 78.98 62.79 78.86 57.43 72.77 57.42 72.77 57.31 72.63"/><polyline class="cls-3" points="62.85 79.03 62.9 78.98 67.39 74.21 68.82 72.68 68.94 72.55"/><polyline class="cls-3" points="69 72.57 68.86 72.72 67.39 74.21 62.79 78.86 62.47 79.19"/><polyline class="cls-3" points="74.47 79.1 74.32 78.94 74.29 78.9 68.86 72.72 68.82 72.68 68.73 72.58"/><polyline class="cls-3" points="74.28 78.98 74.32 78.94 75.65 77.52 80.37 72.5"/><polyline class="cls-3" points="80.76 72.35 80.61 72.49 75.65 77.52 74.29 78.9 74.23 78.96"/><polyline class="cls-3" points="86.22 78.87 86.08 78.71 86 78.62 80.61 72.49 80.49 72.35"/><polyline class="cls-3" points="86.04 78.75 86.08 78.71 89.13 75.46 92.13 72.27"/><polyline class="cls-3" points="92.4 72.14 92.26 72.29 89.13 75.46 86 78.62 85.87 78.76"/><polyline class="cls-3" points="97.87 78.67 97.73 78.5 92.26 72.29 92.14 72.15"/><polyline class="cls-3" points="97.69 78.55 97.73 78.5 102.53 73.45 102.56 73.42"/><path class="cls-3" d="M57.92,29.6c0,.52,0,1,0,1.51.45,6.91,4.05,12,10.31,12h0"/><path class="cls-3" d="M79.56,29.34a.86.86,0,0,1,0,.16C79.49,37.13,75,43.16,68.28,43.16"/><path class="cls-3" d="M58.33,29.7c-.13.05-.19.13-.19.22,0,.87,5.16,3.39,11.21,3.39h0"/><path class="cls-3" d="M79.54,29.5l0,0c-2.3,2.37-3.43,3.79-10.17,3.79"/><path class="cls-3" d="M58.12,29.72v.2c0,.41,0,.8,0,1.17.46,6.56,4.3,8.53,10.59,8.53h0"/><path class="cls-3" d="M79.52,29.45v.07c0,7.65-4,10.1-10.77,10.1"/><path class="cls-3" d="M49.05,28.84q0,.56,0,1.14c.48,7.67,5.71,18.71,19.13,19h0"/><path class="cls-3" d="M88.53,30.12c0,.19,0,.38,0,.57-.69,7.77-6.19,19-20.27,18.29"/><path class="cls-3" d="M88.56,29v0"/><path class="cls-3" d="M49.15,28.88c0,.36,0,.72,0,1.09.46,7.42,5.61,15.85,19.05,16.14h0"/><path class="cls-3" d="M88.56,29.07q0,.53,0,1.05c0,.19,0,.38,0,.57-.69,7.43-6.18,16.17-20.25,15.42"/><polyline class="cls-3" points="35.68 53.14 35.71 56.36 35.79 63.83 35.83 67.13 35.91 74.54 35.94 77.84 35.95 78.27"/><polyline class="cls-3" points="102.36 51.84 102.36 51.95 102.39 55.28 102.45 63.01 102.48 66.35 102.53 73.45 102.56 76.75"/><circle class="cls-4" cx="69.06" cy="67.28" r="61.73"/><path class="cls-1" d="M101.79,122.55l-.18,0L71.53,189.45,36.75,124.9l-.43,0"/></svg>
