<svg id="Lag_1" data-name="Lag 1" xmlns="http://www.w3.org/2000/svg" width="140" height="190" viewBox="0 0 140 190"><defs><style>.cls-1{fill:#828282;}.cls-2{fill:none;stroke:#828282;stroke-miterlimit:10;stroke-width:10px;}</style></defs><path class="cls-1" d="M70.11,30.39a38.46,38.46,0,0,1,6.37.53c-.63-2.62-3.58-4.61-7.12-4.61s-6.72,2.14-7.18,4.92A37.09,37.09,0,0,1,70.11,30.39Z"/><path class="cls-1" d="M69.23,38.47c10.22,0,15.33,2.81,18.63,12.84C85.7,39.53,80.44,34.39,69.65,34.39c-9.81,0-15.76,4.76-18.82,14.92C54.77,41,60.12,38.47,69.23,38.47Z"/><path class="cls-1" d="M52.65,56.14c-.06.14,0-4.88,0-4.88a7.34,7.34,0,0,1,3.87-4.79C59.77,45,63.11,43,68.27,43s12.46,1.92,15.29,5.46,2.75,3.54,2.8,4,0,3.13,0,3.13-2.46-4.05-6-4.21S60.48,51,60.48,51,54.19,52.35,52.65,56.14Z"/><path class="cls-1" d="M71.36,94.25,69.77,67.17c-1.33-.28-3-1.56-3-3a3.45,3.45,0,0,1,2.73-3L69.36,56,69.25,56v0l-4.88-.06c-4-2.22-6.59-.72-8.48.58s-2.83,4.64-2.83,4.64S53,68.69,53,75s3,7.67,4.31,7.22.75-1.94.33-6.13,4.06-1.87,4.06-1.87l2.8,18,.15,0c-.06-.55.63,1.11.63,1.11Z"/><path class="cls-1" d="M75.52,90.94l0-.27h0A2.56,2.56,0,0,0,75.52,90.94Z"/><path class="cls-1" d="M85.47,60.39s-1.09-3.28-3-4.5-4.62-2.61-8.49-.21L69.25,56l.23,5.32.21,0a2.94,2.94,0,0,1,0,5.88l.9,27,4.77-2s.15-1.46.15-1.46L77.4,73.88s4.36-2.53,4.13,1.68-.71,5.73.61,6.11,4.23-1.13,4-7.4S85.47,60.39,85.47,60.39Z"/><path class="cls-1" d="M50.52,80.17s-2.41-3.42-2.39-6.34.2-25.75.2-25.75-10.61-.94-11.95-1.16S25.22,49.53,21.94,61.86a1.17,1.17,0,0,0,1,1.6c1.5.15,4.4,1.12,5.6,3s1.39,4.64,1.75,5.94a6.14,6.14,0,0,0,2,3.48,11.1,11.1,0,0,1,4.61,7.58c.64,4.58,7,3.81,7,3.81S49,84.31,50.52,80.17Z"/><path class="cls-1" d="M118.39,62.07c-3.27-12.33-13.11-15.17-14.44-15S92,48.29,92,48.29s.16,22.83.19,25.75-2.39,6.33-2.39,6.33c1.56,4.14,6.58,7.14,6.58,7.14s6.37.78,7-3.8A11.13,11.13,0,0,1,108,76.12a6.23,6.23,0,0,0,2-3.47c.36-1.3.55-4,1.75-5.94s4.09-2.89,5.59-3a1.17,1.17,0,0,0,1-1.6"/><polygon class="cls-1" points="75.55 90.67 75.55 90.66 75.55 90.67 75.55 90.67"/><path class="cls-1" d="M66.19,112.56c3.14-.81,7.67-.39,8.53-11.53.55-7.2.74-9.42.8-10.09L75.4,92l-4.56,1,0,.3-.78-.14-1,.21V93l-4.45-.76c.22,2.28.77,8.26.41,9.36-.45,1.36-1.06,3.31-2.81,3.7"/><path class="cls-1" d="M58.08,103.28c-.31-1.84-.81-5.09-1-5.61s-2.53-4.64-4.5-4.81-5-.14-6.09,1a6.05,6.05,0,0,0,3.75,2.17c2.47.38,2.59,7.3,2.59,7.3"/><polygon class="cls-1" points="69.12 93.01 70.08 93.17 70.84 93.01 70.75 90.97 69.12 91.07 69.12 93.01"/><circle class="cls-2" cx="70.17" cy="67.11" r="61.73"/><path class="cls-1" d="M102.9,122.39l-.18,0L72.64,189.29,37.87,124.74l-.44,0"/></svg>
