<svg id="Lag_1" data-name="Lag 1" xmlns="http://www.w3.org/2000/svg" width="140" height="190" viewBox="0 0 140 190"><defs><style>.cls-1{fill:#828282;}.cls-2{fill:none;stroke:#828282;stroke-miterlimit:10;stroke-width:10px;}</style></defs><polygon class="cls-1" points="104 124.5 36 124.5 36 114.41 47.69 114.41 104 114.41 104 124.5"/><path class="cls-1" d="M88.21,43.66,90,43.34l1.52-4.78L71.29,31.83l-2,5.1,1.52,1.63-2.28,7.7-7.48-1.62-2.82,6.94,1.95,2-3.37,10.3-.32,1-1.85-.76-2.49,6.73,2.39,1.08L51.1,83.37l-2.6.11-2.17,6.19,2.06,2-2.39,9-2.82-.87L40.69,107l2.6,1.09-.43,2.17-2.61,4,32.88.43,1-5.2-1-.33,2.39-8.68,1.84-.22L80,93.68,77.69,92l3.69-11.29,2.93-.32,1-7.06-1.08-.43L86.91,62l3.37-.44.65-7.7L85.5,52.45ZM71,43.72c.76-2,1.26-3.88,3.52-2.91s1.52,2.45.75,4.5-1.19,3.86-3.52,2.92S70.23,45.77,71,43.72ZM69.7,64.61c.76-2,1.26-3.88,3.52-2.91s1.51,2.46.75,4.51-1.19,3.86-3.52,2.91S68.93,66.66,69.7,64.61Zm-8.25-3c.77-2,1.26-3.88,3.52-2.92s1.52,2.46.75,4.51-1.19,3.86-3.52,2.91S60.69,63.7,61.45,61.65Zm-7.3,37.83c-.77,2-1.19,3.86-3.52,2.92s-1.52-2.46-.75-4.51S51.14,94,53.4,95,54.91,97.43,54.15,99.48ZM56,85.9c-2.32-.94-1.51-2.45-.75-4.5s1.26-3.88,3.52-2.92,1.52,2.46.75,4.51S58.31,86.85,56,85.9Zm6.56,16.33c-.77,2-1.19,3.86-3.52,2.92s-1.52-2.46-.75-4.51,1.26-3.88,3.52-2.92S63.3,100.18,62.54,102.23ZM63.48,84c.76-2,1.26-3.88,3.52-2.91s1.51,2.45.75,4.5-1.19,3.86-3.52,2.92S62.71,86.05,63.48,84Zm7.16,20.91c-.76,2-1.19,3.86-3.52,2.91s-1.51-2.46-.75-4.51,1.26-3.88,3.52-2.91S71.41,102.86,70.64,104.91Zm5.14-16c-.77,2-1.19,3.86-3.52,2.91s-1.52-2.45-.75-4.5,1.26-3.88,3.52-2.92S76.54,86.87,75.78,88.92Zm6-20.33c-.76,2-1.19,3.86-3.52,2.92s-1.51-2.46-.75-4.51,1.26-3.88,3.52-2.91S82.55,66.54,81.78,68.59ZM81.37,51.4c-2.32-.94-1.51-2.46-.75-4.51S81.88,43,84.14,44s1.52,2.45.75,4.5S83.7,52.34,81.37,51.4Z"/><circle class="cls-2" cx="70" cy="67.45" r="61.73"/><path class="cls-1" d="M102.73,122.72l-.17,0L72.48,189.62,37.7,125.07l-.43,0"/></svg>
