<svg id="Lag_1" data-name="Lag 1" xmlns="http://www.w3.org/2000/svg" width="140" height="190" viewBox="0 0 140 190"><defs><style>.cls-1{fill:#828282;}.cls-2{fill:none;stroke:#828282;stroke-miterlimit:10;stroke-width:10px;}</style></defs><rect class="cls-1" x="29" y="83.38" width="78" height="9.67"/><rect class="cls-1" x="87.5" y="95.21" width="10.67" height="10.17"/><rect class="cls-1" x="37.33" y="95.38" width="10.5" height="9.67"/><path class="cls-1" d="M96.67,69.72c.37,8.42-6.57,14-14.14,14s-13.11-4.55-13.3-14c0-.4,6.14-.72,13.72-.72S96.65,69.32,96.67,69.72Z"/><polygon class="cls-1" points="102.29 29.63 31.67 57 33.1 59.19 105.85 34.31 102.29 29.63"/><polygon class="cls-1" points="103.54 44.81 103.54 50.38 29.6 49.5 29.48 47.63 103.54 44.81"/><circle class="cls-2" cx="70" cy="67.78" r="61.73"/><path class="cls-1" d="M102.73,123.05l-.17,0L72.48,190,37.7,125.4l-.43,0"/></svg>
