<svg id="Lag_1" data-name="Lag 1" xmlns="http://www.w3.org/2000/svg" width="140" height="190" viewBox="0 0 140 190"><defs><style>.cls-1{fill:none;stroke:#828282;stroke-miterlimit:10;stroke-width:10px;}.cls-2{fill:#828282;}</style></defs><circle class="cls-1" cx="69.66" cy="67.78" r="61.73"/><path class="cls-2" d="M102.39,123.05l-.17,0L72.14,190,37.36,125.4l-.43,0"/><path class="cls-2" d="M23.19,79.29a13.17,13.17,0,0,1,.71-3.1c.52-1.22,6.52-10.65,6.71-10.65a9,9,0,0,0,1.36-3c.19-.9,1.16-8.65,2-10.78s3.62-7.68,14.33-7.62a34.68,34.68,0,0,0,5.43-1.55c1.67-.77,14.13-9.81,20.65-9.94s10,0,10,0,14.2,3.81,17.37,14.14,2.77,17.11,1.09,20.14S94.14,78,92.59,80.32s-4.26,7.49-4.39,11.24,0,8.58,0,8.58-.26,1.74-3.68,1.62-4.71-.26-4.71-.26a45.86,45.86,0,0,1-3.88,3.55,9.77,9.77,0,0,0-.9.45l.56-1.11.43-2.18-4.91,0-1.33.39-.75.53.6-1.23,4-1.5,0-1.12-2.81-.75,5.5-.34,5.37,0s5.94-4.43,4-11.82S76.29,72.92,69.1,72.36,50.5,64.77,49,62.83l-3-.18s-4.57,3.95-8.84,3A35.85,35.85,0,0,0,24.63,77.08l-1.24,2.4Z"/><path class="cls-2" d="M76.48,79.65l1.58,1.42s-3.61,4.87-3.74,7.71-2,3.13-2,3.13L68.48,93.3,65.93,96,64.7,97.14s-.68.23-.68.13.29-1.29.29-1.29V93.4l-3.64-.2s1.51-.26,1.48-1.39-2.94-1.29-2.94-1.29a9,9,0,0,0,1.88-1.06c.51-.49,8.9-.1,8.9-.1a5.82,5.82,0,0,0,1.55-1.45C71.83,87.3,74.84,80.23,76.48,79.65Z"/></svg>
