<svg id="Lag_1" data-name="Lag 1" xmlns="http://www.w3.org/2000/svg" width="140" height="190" viewBox="0 0 140 190"><defs><style>.cls-1{fill:#828282;}.cls-2{fill:none;stroke:#828282;stroke-miterlimit:10;stroke-width:10px;}</style></defs><rect class="cls-1" x="39.51" y="31.59" width="1.16" height="4.32"/><path class="cls-1" d="M42.11,38.72c.31-.36.26-.52.26-1a2.19,2.19,0,0,0-2.28-2.09,2.23,2.23,0,0,0-2.34,2.09c0,.49-.08,1,.23,1.31Z"/><rect class="cls-1" x="37.74" y="38" width="4.63" height="1.02"/><path class="cls-1" d="M42.65,40.32H37.42l-4,7.11,2-.92h9.26l2.07.91ZM40.11,46a2.14,2.14,0,1,1,2.14-2.14A2.13,2.13,0,0,1,40.11,46Z"/><circle class="cls-1" cx="40.07" cy="43.82" r="0.8"/><polygon class="cls-1" points="32.4 49.43 35.73 47.84 44.38 47.79 47.8 49.43 47.8 76.52 32.4 76.52 32.4 49.43"/><rect class="cls-1" x="32.36" y="77.68" width="15.31" height="24.82"/><rect class="cls-1" x="48.92" y="75.94" width="10.09" height="8.26"/><rect class="cls-1" x="48.92" y="85.4" width="10.06" height="4.19"/><path class="cls-1" d="M49,90.67v4.71h2a3,3,0,1,1,6,0h2V90.67Z"/><ellipse class="cls-1" cx="53.95" cy="95.53" rx="1.74" ry="1.93"/><rect class="cls-1" x="52.18" y="95.53" width="3.46" height="6.77"/><rect class="cls-1" x="48.89" y="96.63" width="2.04" height="5.78"/><rect class="cls-1" x="56.85" y="96.59" width="2.17" height="5.85"/><rect class="cls-1" x="60.1" y="78.46" width="1.89" height="24.04"/><path class="cls-1" d="M59.37,74.82l0-2.27s.43-.68,1-.4.35,1.09.35,1.09Z"/><ellipse class="cls-1" cx="69.56" cy="93.32" rx="3.5" ry="2.57"/><rect class="cls-1" x="66.01" y="93.32" width="7.06" height="9.02"/><path class="cls-1" d="M63.15,78.37v23.91h1.71V92.45h.06c0-1.58,2.07-2.86,4.63-2.86s4.64,1.28,4.64,2.86h0v9.83H76V78.37Z"/><rect class="cls-1" x="63.8" y="76.98" width="11.51" height="1.48"/><path class="cls-1" d="M79.34,77.2c-.68-3.82-4.89-6.7-9.92-6.6-4.87.09-8.85,2.94-9.6,6.6Z"/><rect class="cls-1" x="67.6" y="67.1" width="3.83" height="2.3"/><rect class="cls-1" x="67.6" y="66.45" width="3.83" height="1.79" rx="0.9"/><rect class="cls-1" x="68.95" y="64.42" width="1.18" height="2.11"/><rect class="cls-1" x="98.33" y="31.5" width="1.16" height="4.32" transform="translate(197.82 67.32) rotate(-180)"/><path class="cls-1" d="M96.89,38.62c-.31-.35-.26-.51-.26-1a2.2,2.2,0,0,1,2.28-2.1,2.24,2.24,0,0,1,2.34,2.1c0,.49.08,1-.23,1.31Z"/><rect class="cls-1" x="96.63" y="37.9" width="4.63" height="1.02" transform="translate(197.88 76.83) rotate(-180)"/><path class="cls-1" d="M92.24,47.34l2.07-.91,9.26,0,2,.93-4-7.11H96.35Zm4.51-3.57a2.14,2.14,0,1,1,2.14,2.14A2.13,2.13,0,0,1,96.75,43.77Z"/><circle class="cls-1" cx="98.93" cy="43.73" r="0.8"/><polygon class="cls-1" points="106.6 49.33 103.27 47.74 94.62 47.7 91.2 49.33 91.2 76.43 106.6 76.43 106.6 49.33"/><rect class="cls-1" x="91.33" y="77.59" width="15.31" height="24.82" transform="translate(197.98 180) rotate(-180)"/><rect class="cls-1" x="79.99" y="75.84" width="10.09" height="8.26" transform="translate(170.08 159.94) rotate(-180)"/><rect class="cls-1" x="80.02" y="85.3" width="10.06" height="4.19" transform="translate(170.11 174.79) rotate(-180)"/><path class="cls-1" d="M90,90.58v4.71h-2a3,3,0,1,0-6,0H80V90.58Z"/><ellipse class="cls-1" cx="85.05" cy="95.43" rx="1.74" ry="1.93"/><rect class="cls-1" x="83.35" y="95.44" width="3.46" height="6.77" transform="translate(170.17 197.65) rotate(-180)"/><rect class="cls-1" x="88.06" y="96.54" width="2.04" height="5.78" transform="translate(178.17 198.86) rotate(-180)"/><rect class="cls-1" x="79.98" y="96.49" width="2.17" height="5.85" transform="translate(162.13 198.84) rotate(-180)"/><rect class="cls-1" x="77.01" y="78.37" width="1.89" height="24.04" transform="translate(155.91 180.77) rotate(-180)"/><path class="cls-1" d="M79.63,74.73l0-2.27s-.43-.68-1-.4-.35,1.08-.35,1.08Z"/><ellipse class="cls-1" cx="69.44" cy="93.22" rx="3.5" ry="2.57"/><rect class="cls-1" x="65.92" y="93.23" width="7.06" height="9.02" transform="translate(138.91 195.48) rotate(-180)"/><path class="cls-1" d="M75.85,78.28v23.91H74.14V92.35h-.06c0-1.58-2.07-2.86-4.63-2.86s-4.64,1.28-4.64,2.86h0v9.84H63V78.28Z"/><rect class="cls-1" x="63.69" y="76.89" width="11.51" height="1.48" transform="translate(138.9 155.25) rotate(-180)"/><path class="cls-1" d="M59.66,77.1c.68-3.81,4.89-6.69,9.92-6.59,4.87.09,8.85,2.94,9.6,6.59Z"/><rect class="cls-1" x="67.57" y="67.01" width="3.83" height="2.3" transform="translate(138.97 136.32) rotate(-180)"/><rect class="cls-1" x="67.58" y="66.36" width="3.83" height="1.79" rx="0.9" transform="translate(138.98 134.51) rotate(180)"/><rect class="cls-1" x="68.87" y="64.32" width="1.18" height="2.11" transform="translate(138.92 130.75) rotate(-180)"/><circle class="cls-2" cx="69.5" cy="67.28" r="61.73"/><path class="cls-1" d="M102.23,122.55l-.17,0L72,189.45,37.2,124.9l-.43,0"/></svg>
