<svg id="Lag_1" data-name="Lag 1" xmlns="http://www.w3.org/2000/svg" width="140" height="190" viewBox="0 0 140 190"><defs><style>.cls-1{fill:#828282;}.cls-2{fill:none;stroke:#828282;stroke-miterlimit:10;stroke-width:10px;}</style></defs><rect class="cls-1" x="70.44" y="61.93" width="2.71" height="36.04" rx="1.36"/><path class="cls-1" d="M71.15,62s-6.67.06-6.73.81-.06,28-.06,28l-4.8-22.93s-5.17,3-6.35,4.46c0,0-13.09-1.47-17.2-5.71S27.49,55.53,27.4,54.33s-2-4.16-2.78-3.78.33,7.81.33,7.81,2.21,19.86,20.53,25.17a77.29,77.29,0,0,0-2.58,8.11S50.63,97.78,70.7,98Z"/><path class="cls-1" d="M97.86,83.51a78.47,78.47,0,0,1,2.57,8.1S92.7,97.76,72.64,98l-.46-36s6.67.06,6.73.81.06,28,.06,28l4.8-22.93s5.17,3,6.36,4.46"/><path class="cls-1" d="M101.13,96.29h-.2C97.68,99.58,85.86,102,71.78,102s-25.91-2.44-29.16-5.73H42v9.18c0,.3,0,.6,0,.88,0,5.7,13.24,10.32,29.57,10.32s29.57-4.62,29.57-10.32a3.23,3.23,0,0,0,0-.53h0Zm-55.2,11.3c-1.27,0-2.29-1.56-2.29-3.49s1-3.49,2.29-3.49,2.29,1.56,2.29,3.49S47.19,107.59,45.93,107.59Zm11,4.18a3.51,3.51,0,1,1,3.18-3.49A3.35,3.35,0,0,1,56.9,111.77Zm14.78,1a3.57,3.57,0,1,1,3.57-3.57A3.57,3.57,0,0,1,71.68,112.82Zm14.8-1.14a3.51,3.51,0,1,1,3.18-3.49A3.34,3.34,0,0,1,86.48,111.68Zm11-4c-1.26,0-2.29-1.56-2.29-3.49s1-3.49,2.29-3.49,2.29,1.56,2.29,3.49S98.76,107.65,97.49,107.65Z"/><circle class="cls-2" cx="70.67" cy="67.95" r="61.73"/><path class="cls-1" d="M103.4,123.22l-.18,0L73.14,190.12,38.37,125.57l-.44,0"/></svg>
