<svg id="Lag_1" data-name="Lag 1" xmlns="http://www.w3.org/2000/svg" width="140" height="190" viewBox="0 0 140 190"><defs><style>.cls-1,.cls-2{fill:#828282;}.cls-1,.cls-3{stroke:#828282;stroke-miterlimit:10;}.cls-3{fill:none;stroke-width:10px;}</style></defs><rect class="cls-1" x="31.75" y="102.49" width="76.83" height="2.01"/><rect class="cls-1" x="39.19" y="97.16" width="62.25" height="5.13"/><rect class="cls-1" x="43.11" y="92.03" width="54.71" height="6.24"/><rect class="cls-1" x="49.35" y="79.76" width="9.65" height="12.57"/><rect class="cls-1" x="81.83" y="79.66" width="9.65" height="12.27"/><rect class="cls-1" x="50.61" y="49.54" width="2.11" height="29.92"/><rect class="cls-1" x="55.38" y="49.44" width="2.41" height="30.17"/><rect class="cls-1" x="82.89" y="49.49" width="2.41" height="29.97"/><rect class="cls-1" x="88.07" y="49.64" width="2.11" height="30.27"/><rect class="cls-1" x="40.4" y="39.94" width="60.34" height="9.6"/><path class="cls-1" d="M43.67,49.74S50,54.32,50.25,59.4l.16-5.94s-2.12-4.57-5-4.37S43.67,49.74,43.67,49.74Z"/><path class="cls-1" d="M96.91,50s-6.29,4.57-6.59,9.65l-.15-5.93s2.11-4.58,5-4.38S96.91,50,96.91,50Z"/><path class="cls-2" d="M40.47,43.79c-.15-1.25-3.06-14.82-4.95-16.15,0,0,5.71-1,9.68,6.09s2.87,5,2.87,5,3.29-1.4,3.69-2.89c0,0,1.79,2.67,3.65,2.82s4-2.74,4-2.74,1.86,2.79,3.57,2.74a4.29,4.29,0,0,0,4.28-4.15c.4-3.17,0-7.19,2.84-7.12s-1,13.23-1,13.23S40.51,44.09,40.47,43.79Z"/><path class="cls-2" d="M100.37,43.67c.15-1.24,3.07-14.81,5-16.14,0,0-5.71-1-9.68,6.08s-2.87,5-2.87,5-3.29-1.41-3.7-2.89c0,0-1.78,2.66-3.64,2.81s-4-2.74-4-2.74-1.86,2.79-3.57,2.74a4.28,4.28,0,0,1-4.28-4.15c-.4-3.16-.05-7.19-2.84-7.11s1,13.22,1,13.22S100.34,44,100.37,43.67Z"/><circle class="cls-3" cx="70.17" cy="67.78" r="61.73"/><path class="cls-2" d="M102.9,123.05l-.18,0L72.64,190,37.87,125.4l-.44,0"/></svg>
