<svg id="Lag_1" data-name="Lag 1" xmlns="http://www.w3.org/2000/svg" width="140" height="190" viewBox="0 0 140 190"><defs><style>.cls-1{fill:#828282;}.cls-2{fill:none;stroke:#828282;stroke-miterlimit:10;stroke-width:10px;}</style></defs><path class="cls-1" d="M99.12,101.39c-2.69-1.11-7.19-2.53-7.19-2.53S90.68,97.12,89.3,101a33.83,33.83,0,0,1-2,4.82s-6.43-3-6.53-8.6-3.91-7.62-3.91-7.62-3.61-5.42-3.61-8.11,0-5.65,0-5.65a37.13,37.13,0,0,0,1-5l7.19-1.25-7-.82-.33-.53s.1-1.41-.06-1.41,6.4-4.34,6.4-4.34l-7,2.66S72.49,64,72.26,64,76,56.53,76,56.53l-5.35,6.11a10.3,10.3,0,0,0-2.5-.75c-.29.13-.92-8.87-.92-8.87l-1.18,8.54-.26.39s-1.71.17-1.94.26-5.74-7-5.74-7l3.48,8.34a18.76,18.76,0,0,0-2.07,1.54l-6.9-2.72,5.81,4.4-.19,1.77-4.6.49s-1.08-2.16-2.14-2.36a23.86,23.86,0,0,1-1-5.29A79.54,79.54,0,0,0,48.12,49c-.39-.69.07-7.88.07-7.88s-1-3.09-2-3.29L46.58,33l1.48-.1.09-2.79-.59,0s1-3.15-2.51-8.37c0,0-.6,3.48-2.46,3.68s-.37-3-.37-3-3.5,1.9-2.14,7.38v.35h-.44v2.69h1.62v4.51s-2.48.61-1.12,2a2.53,2.53,0,0,0,.31,1.53,1.76,1.76,0,0,0,.28,1.43c.51.81,0,1,.77,1.59a2.55,2.55,0,0,1,.81,1.8s-.33,4.58-.4,4.71-.24,10.35,1.23,14.27,1.29,4.84.61,5.91-4.59,6.24-3.67,10.42,3.61,4.84,3.61,4.84.57,4.12,2.06,6.09,3.37,13.24,2.82,15-5.1,9.85-4.82,13.57,2.35,4.79,4.36,4.88l36.89.75,4.67-3.65a10.11,10.11,0,0,0,2.59.82c.66,0,1.44-.19,2.23-3.38,0,0,2,1.05,3.75-3.81s2.39-2.59.42-6.76l2-4.93S101.82,102.51,99.12,101.39ZM56.47,78s-1.73-.24-1.55-2.78A14.87,14.87,0,0,0,54.15,70l3.57.34S58.76,77.81,56.47,78Z"/><circle class="cls-2" cx="70.27" cy="67.39" r="61.73"/><path class="cls-1" d="M103,122.67l-.18,0L72.74,189.57,38,125l-.43,0"/></svg>
